<svg width="39" height="392" viewBox="0 0 39 392" fill="none" xmlns="http://www.w3.org/2000/svg">
<path d="M1 1L20.0182 29.2867C24.7917 36.3865 24.5206 45.7364 19.3437 52.5477L9.57614 65.3993C4.43835 72.1592 4.1289 81.4264 8.80427 88.5141L20.7354 106.601C25.1423 113.282 25.1422 121.946 20.7354 128.627L8.19715 147.634C3.82452 154.263 3.78778 162.85 8.1035 169.516L20.9627 189.378C25.2447 195.992 25.2447 204.503 20.9627 211.117L7.62686 231.715C3.55731 238.001 3.33983 246.033 7.06331 252.53L22.635 279.699C25.9836 285.541 26.1672 292.677 23.1236 298.684L8.1943 328.148C3.69513 337.027 3.89342 347.56 8.72362 356.264L28 391" stroke="#F29C52" stroke-width="2" stroke-dasharray="6 6"/>
<path d="M11 1L30.0182 29.2867C34.7917 36.3865 34.5206 45.7364 29.3437 52.5477L19.5761 65.3993C14.4384 72.1592 14.1289 81.4264 18.8043 88.5141L30.7354 106.601C35.1423 113.282 35.1422 121.946 30.7354 128.627L18.1971 147.634C13.8245 154.263 13.7878 162.85 18.1035 169.516L30.9627 189.378C35.2447 195.992 35.2447 204.503 30.9627 211.117L17.6269 231.715C13.5573 238.001 13.3398 246.033 17.0633 252.53L32.635 279.699C35.9836 285.541 36.1672 292.677 33.1236 298.684L18.1943 328.148C13.6951 337.027 13.8934 347.56 18.7236 356.264L38 391" stroke="#F29C52" stroke-width="2" stroke-dasharray="6 6"/>
</svg>
